<svg alt="Asimov logo" class="css-14ykrld" viewBox="0 0 775 137.2"><linearGradient id="a" x1="136.25" x2="911.25128" y1="199.4995" y2="199.4995" gradientTransform="translate(-136.2 -130.9)" gradientUnits="userSpaceOnUse"><stop offset="0" stop-color="#2100ff"></stop><stop offset=".09240592" stop-color="#3700f2"></stop><stop offset=".3749" stop-color="#7500cd"></stop><stop offset=".5089" stop-color="#8e00bf"></stop><stop offset="1" stop-color="#ff7015"></stop></linearGradient><path fill="url(#a)" d="M310.8 135.7h-19.9V2.5h19.9zM448.2 9.3l-39.1 52.2-39.7-52.4c-3.2-4.2-8.1-6.6-13.4-6.6h-12.6v133.1h16.2c2 0 3.6-1.6 3.6-3.6V34.6l45.9 57.6 45.1-57.5v97c0 2.1 1.7 3.9 3.9 3.9h16V2.5h-12.5c-5.2 0-10.2 2.5-13.4 6.8zM748 15.9l-37.5 93.6L673 15.9c-3.2-8.1-11.1-13.4-19.8-13.4H646l53.9 132.1c.3.7.9 1.1 1.6 1.1h17.9c.7 0 1.4-.4 1.7-1.1L775 2.6h-7.2c-8.7-.1-16.5 5.2-19.8 13.3zM247.5 127.3c9.7-6.8 14.7-16.8 14.7-29.6 0-11-5.1-19.7-15-26-4.3-2.8-9.3-5.2-14.8-6.9-5.4-1.8-10.9-3.3-16.5-4.7-11.3-2.8-24.3-4.8-34.9-10-2.7-1.3-5.1-3-6.6-5.5-.4-.7-.8-1.4-1.1-2.3v-.2c-2.5-7.7.7-23.5 32.9-23.5 27.5 0 31.6 14.4 32.4 22.7.1 1.9 1.7 2.9 3.4 2.9h16.8c0-3.4 0-6.8-.7-10.1-.5-2.7-1.4-5.3-2.5-7.8-2.3-5.1-5.9-9.5-10.2-13.1-.2-.2-.4-.3-.6-.5C235.4 4.9 222 .9 205.1.9c-16.8 0-29.6 3.5-38.1 10.4-8.7 7.1-13 16.3-13 27.5 0 8 2.5 14.6 7.3 19.3 4.6 4.5 10.4 8.2 17.2 11 6.7 2.7 13.9 4.9 21.7 6.6 7.5 1.7 14.6 3.5 21.1 5.4 6.3 1.8 11.5 4.2 15.6 7 3.6 2.5 5.4 5.7 5.4 10 0 4.9 0 20-33.6 20-11 0-20-1.9-26.5-5.6-3.9-2.2-7.4-5.4-9.4-9.5-.9-1.8-1.5-3.8-1.9-5.8l-.5-3.4c-.3-1.7-1.7-3-3.5-3l-16.6-.2c-.3 0 .2 5.9.2 6.5.2 2.5.7 4.9 1.3 7.3.6 2.1 1.3 4.1 2.2 6.1.9 2 1.9 3.9 3.1 5.7 1.2 1.8 2.5 3.5 4 5.1 1.4 1.5 2.8 2.9 4.4 4.1 9.9 7.8 24.4 11.8 42.9 11.8 16.6 0 29.7-3.3 39.1-9.9zM618.8 19.9C606 6.7 589.4 0 569.6 0c-19.9 0-36.4 6.7-49.2 19.9-12.5 12.8-18.9 29-18.9 48.2 0 19.2 6.4 35.4 18.9 48.2 12.8 13.2 29.4 19.9 49.2 19.9 19.9 0 36.4-6.7 49.2-19.9 12.5-12.8 18.9-29 18.9-48.2 0-19.2-6.3-35.4-18.9-48.2zm-13.9 82.9c-8.9 9.3-20.8 14.1-35.3 14.1-14.5 0-26.4-4.7-35.3-14.1-8.6-9-12.9-20.7-12.9-34.7 0-14 4.3-25.7 12.9-34.7 8.9-9.3 20.8-14.1 35.3-14.1 14.5 0 26.4 4.7 35.3 14.1 8.6 9 12.9 20.7 12.9 34.7 0 14-4.3 25.7-12.9 34.7zM79.8 4.7c-.6-1.3-1.9-2.2-3.3-2.2H59.4c-1.4 0-2.7.8-3.3 2.2L0 135.7h7.8c8.6 0 16.3-5.1 19.6-13l10.2-24.1 2.4-5.7c11.9 3 18.1 12 26 19.7 10.8 10.6 23.1 22.6 47.8 23.1h22zm-2.6 88.1c-7.8-7.7-16.3-15-29.7-18.6L68 25.5l22.3 53 7.9 18.6 6.6 15.6c-12.4-3.2-19.6-12-27.6-19.9z"></path></svg>